<svg width="19" height="22" viewBox="0 0 19 22" fill="none" xmlns="http://www.w3.org/2000/svg">
<path d="M17.937 7.98808C17.8388 8.04538 15.5005 9.25463 15.5005 11.9358C15.6107 14.9936 18.4513 16.0659 18.5 16.0659C18.4513 16.1232 18.0712 17.5267 16.9452 18.9979C16.0515 20.2651 15.0597 21.5429 13.5536 21.5429C12.1209 21.5429 11.6066 20.6982 9.95357 20.6982C8.17832 20.6982 7.67601 21.5429 6.31683 21.5429C4.8107 21.5429 3.74539 20.1967 2.80307 18.9413C1.57884 17.2982 0.538286 14.7197 0.501551 12.2439C0.476795 10.932 0.746716 9.64233 1.4319 8.54694C2.39898 7.0177 4.12552 5.9796 6.01097 5.94537C7.45561 5.89998 8.74132 6.86961 9.62296 6.86961C10.4679 6.86961 12.0475 5.94537 13.8347 5.94537C14.6061 5.94611 16.6633 6.16266 17.937 7.98808ZM9.50078 5.68343C9.24363 4.48534 9.95357 3.28725 10.6148 2.523C11.4597 1.59876 12.7941 0.971436 13.9449 0.971436C14.0184 2.16953 13.5528 3.34455 12.7207 4.20033C11.974 5.12457 10.6883 5.82035 9.50078 5.68343Z" fill="#010101"/>
</svg>
