<svg width="18" height="19" viewBox="0 0 18 19" fill="none" xmlns="http://www.w3.org/2000/svg">
<path d="M16.8759 9.43201C16.8759 8.78451 16.8223 8.31201 16.7063 7.82202H9.16162V10.7445H13.5902C13.5009 11.4708 13.0188 12.5645 11.9473 13.2995L11.9323 13.3973L14.3178 15.2084L14.483 15.2245C16.0009 13.8508 16.8759 11.8295 16.8759 9.43201Z" fill="#010101"/>
<path d="M9.16098 17.132C11.3306 17.132 13.152 16.432 14.4824 15.2245L11.9467 13.2994C11.2681 13.7632 10.3574 14.0869 9.16098 14.0869C7.03601 14.0869 5.23246 12.7132 4.58954 10.8145L4.4953 10.8223L2.01486 12.7036L1.98242 12.7919C3.30383 15.3644 6.01811 17.132 9.16098 17.132Z" fill="#010101"/>
<path d="M4.58998 10.8147C4.42034 10.3247 4.32216 9.79965 4.32216 9.25717C4.32216 8.71464 4.42034 8.18966 4.58105 7.69967L4.57656 7.59531L2.06503 5.68384L1.98285 5.72214C1.43824 6.78966 1.12573 7.98843 1.12573 9.25717C1.12573 10.5259 1.43824 11.7246 1.98285 12.7921L4.58998 10.8147Z" fill="#010101"/>
<path d="M9.16103 4.42706C10.6699 4.42706 11.6878 5.06581 12.2682 5.59959L14.536 3.42958C13.1432 2.16083 11.3306 1.38208 9.16103 1.38208C6.01814 1.38208 3.30384 3.14957 1.98242 5.72204L4.58063 7.69957C5.23248 5.80083 7.03604 4.42706 9.16103 4.42706Z" fill="#010101"/>
</svg>
