<svg width="100" height="100" viewBox="0 0 100 100" fill="none" xmlns="http://www.w3.org/2000/svg">
<rect width="100" height="100" rx="11.7188" fill="black"/>
<path fill-rule="evenodd" clip-rule="evenodd" d="M86.8893 50.0269C86.8893 51.7191 85.514 53.0922 83.8288 53.0922C66.8989 53.0922 53.1555 66.8138 53.1555 83.7071C53.1555 85.3993 51.7802 86.7725 50.0853 86.7725C48.4001 86.7725 47.0247 85.3993 47.0247 83.7071L47.015 83.3106C46.8117 66.5914 33.1458 53.0922 16.3515 53.0922H16.3321C14.6468 53.0825 13.2812 51.7094 13.2812 50.0269C13.2812 48.3346 14.6565 46.9615 16.3515 46.9615H16.4483C33.3298 46.9132 47.0247 33.2109 47.0247 16.3465C47.0247 14.6543 48.4001 13.2812 50.0853 13.2812C51.7802 13.2812 53.1555 14.6543 53.1555 16.3465V16.4433C53.2136 33.2979 66.9279 46.9615 83.8288 46.9615C85.514 46.9615 86.8893 48.3346 86.8893 50.0269Z" fill="white"/>
<path fill-rule="evenodd" clip-rule="evenodd" d="M82.1612 26.4889C82.1612 27.3239 81.4874 27.9967 80.6558 28.0015H80.6463C78.1422 28.0015 76.1064 30.034 76.1064 32.5342C76.1064 33.3692 75.4277 34.0467 74.5962 34.0467C73.7599 34.0467 73.0813 33.3692 73.0813 32.5342V32.4197C73.0192 29.972 71.0073 28.0015 68.5414 28.0015C67.7051 28.0015 67.0265 27.3239 67.0265 26.4889C67.0265 25.6587 67.7051 24.9812 68.5414 24.9812C71.0455 24.9812 73.0813 22.9486 73.0813 20.4485C73.0813 19.6135 73.7599 18.936 74.5962 18.936L75.184 19.0553C75.5472 19.208 75.834 19.499 75.9869 19.8568L76.4648 22.2091C77.1529 23.8361 78.7682 24.9812 80.6463 24.9812C81.4826 24.9812 82.1612 25.6587 82.1612 26.4889Z" fill="white"/>
<path fill-rule="evenodd" clip-rule="evenodd" d="M82.1612 72.2525C82.1612 73.0875 81.4874 73.7603 80.6558 73.765H80.6463C78.1422 73.765 76.1064 75.7976 76.1064 78.2978C76.1064 79.1327 75.4277 79.8102 74.5962 79.8102C73.7599 79.8102 73.0813 79.1327 73.0813 78.2978V78.1833C73.0192 75.7356 71.0073 73.765 68.5414 73.765C67.7051 73.765 67.0265 73.0875 67.0265 72.2525C67.0265 71.4223 67.7051 70.7448 68.5414 70.7448C71.0455 70.7448 73.0813 68.7122 73.0813 66.212C73.0813 65.3771 73.7599 64.6996 74.5962 64.6996L75.184 64.8189C75.5472 64.9716 75.834 65.2626 75.9869 65.6204L76.4648 67.9727C77.1529 69.5997 78.7682 70.7448 80.6463 70.7448C81.4826 70.7448 82.1612 71.4223 82.1612 72.2525Z" fill="white"/>
</svg>
