<svg width="100" height="100" viewBox="0 0 100 100" fill="none" xmlns="http://www.w3.org/2000/svg">
<rect x="0.5" y="0.5" width="99" height="99" rx="11.2188" fill="white"/>
<rect x="0.5" y="0.5" width="99" height="99" rx="11.2188" stroke="#687588"/>
<path fill-rule="evenodd" clip-rule="evenodd" d="M86.8893 50.0269C86.8893 51.7191 85.514 53.0922 83.8288 53.0922C66.8989 53.0922 53.1555 66.8138 53.1555 83.7071C53.1555 85.3993 51.7802 86.7725 50.0853 86.7725C48.4001 86.7725 47.0247 85.3993 47.0247 83.7071L47.015 83.3106C46.8117 66.5914 33.1458 53.0922 16.3515 53.0922H16.3321C14.6468 53.0825 13.2812 51.7094 13.2812 50.0269C13.2812 48.3346 14.6565 46.9615 16.3515 46.9615H16.4483C33.3298 46.9132 47.0247 33.2109 47.0247 16.3465C47.0247 14.6543 48.4001 13.2812 50.0853 13.2812C51.7802 13.2812 53.1555 14.6543 53.1555 16.3465V16.4433C53.2136 33.2979 66.9279 46.9615 83.8288 46.9615C85.514 46.9615 86.8893 48.3346 86.8893 50.0269Z" fill="black"/>
<path fill-rule="evenodd" clip-rule="evenodd" d="M82.1613 26.489C82.1613 27.3239 81.4875 27.9967 80.656 28.0015H80.6464C78.1423 28.0015 76.1065 30.0341 76.1065 32.5342C76.1065 33.3692 75.4279 34.0467 74.5963 34.0467C73.76 34.0467 73.0814 33.3692 73.0814 32.5342V32.4197C73.0193 29.972 71.0074 28.0015 68.5415 28.0015C67.7052 28.0015 67.0266 27.3239 67.0266 26.489C67.0266 25.6588 67.7052 24.9812 68.5415 24.9812C71.0456 24.9812 73.0814 22.9486 73.0814 20.4485C73.0814 19.6135 73.76 18.936 74.5963 18.936L75.1842 19.0553C75.5473 19.208 75.8341 19.499 75.987 19.8569L76.4649 22.2091C77.1531 23.8362 78.7683 24.9812 80.6464 24.9812C81.4827 24.9812 82.1613 25.6588 82.1613 26.489Z" fill="black"/>
<path fill-rule="evenodd" clip-rule="evenodd" d="M82.1613 72.2526C82.1613 73.0876 81.4875 73.7604 80.656 73.7652H80.6464C78.1423 73.7652 76.1065 75.7977 76.1065 78.2979C76.1065 79.1329 75.4279 79.8104 74.5963 79.8104C73.76 79.8104 73.0814 79.1329 73.0814 78.2979V78.1834C73.0193 75.7357 71.0074 73.7652 68.5415 73.7652C67.7052 73.7652 67.0266 73.0876 67.0266 72.2526C67.0266 71.4224 67.7052 70.7449 68.5415 70.7449C71.0456 70.7449 73.0814 68.7123 73.0814 66.2122C73.0814 65.3772 73.76 64.6997 74.5963 64.6997L75.1842 64.819C75.5473 64.9717 75.8341 65.2627 75.987 65.6205L76.4649 67.9728C77.1531 69.5998 78.7683 70.7449 80.6464 70.7449C81.4827 70.7449 82.1613 71.4224 82.1613 72.2526Z" fill="black"/>
</svg>
