<svg width="24" height="24" viewBox="0 0 24 24" fill="none" xmlns="http://www.w3.org/2000/svg">
<g clip-path="url(#clip0_342_1631)">
<path d="M0.640501 2.88982L2.463 4.71232C4.15789 2.49344 6.57332 0.934854 9.29347 0.304879C12.0136 -0.325096 14.8683 0.0129551 17.3661 1.26084C19.8638 2.50872 21.8484 4.58835 22.9782 7.14173C24.108 9.69511 24.3122 12.5625 23.5557 15.2502C22.7993 17.9379 21.1295 20.2779 18.8338 21.8672C16.5381 23.4565 13.7602 24.1957 10.9782 23.9577C8.19624 23.7196 5.58429 22.5191 3.59201 20.5629C1.59974 18.6066 0.351787 16.017 0.0630006 13.2398C0.0323681 12.9428 0.120964 12.6459 0.309297 12.4142C0.49763 12.1826 0.770274 12.0352 1.06725 12.0046C1.36423 11.9739 1.66121 12.0625 1.89286 12.2509C2.12452 12.4392 2.27187 12.7118 2.3025 13.0088C2.53899 15.2774 3.56335 17.3913 5.19735 18.9827C6.83135 20.5741 8.97157 21.5422 11.2456 21.7187C13.5197 21.8952 15.7836 21.2688 17.6436 19.9485C19.5035 18.6283 20.8417 16.6977 21.4254 14.4927C22.009 12.2878 21.8011 9.948 20.8379 7.88048C19.8747 5.81295 18.2171 4.14856 16.1535 3.17689C14.0899 2.20521 11.751 1.98777 9.54369 2.56238C7.33636 3.13699 5.40035 4.46729 4.0725 6.32182L6.1095 8.35882C6.16208 8.41127 6.1979 8.47815 6.21243 8.55098C6.22695 8.62381 6.21953 8.69931 6.19109 8.76792C6.16265 8.83652 6.11448 8.89514 6.05269 8.93634C5.9909 8.97753 5.91827 8.99945 5.844 8.99932H0.375001C0.275544 8.99932 0.180162 8.95981 0.109836 8.88949C0.0395094 8.81916 6.00488e-07 8.72378 6.00488e-07 8.62432V3.15532C-0.000132273 3.08106 0.021789 3.00842 0.0629854 2.94663C0.104182 2.88484 0.162798 2.83667 0.231403 2.80823C0.300008 2.77979 0.375512 2.77237 0.448344 2.78689C0.521175 2.80142 0.588053 2.83724 0.640501 2.88982ZM11.625 5.99932C11.9234 5.99932 12.2095 6.11785 12.4205 6.32883C12.6315 6.5398 12.75 6.82595 12.75 7.12432V11.6123L15.792 12.8303C16.0601 12.9472 16.2721 13.1638 16.3832 13.4344C16.4942 13.7049 16.4956 14.008 16.3869 14.2795C16.2783 14.551 16.0682 14.7696 15.8012 14.8888C15.5341 15.0081 15.2312 15.0186 14.9565 14.9183L11.2065 13.4183C10.998 13.3347 10.8192 13.1906 10.6933 13.0046C10.5674 12.8185 10.5001 12.599 10.5 12.3743V7.12432C10.5 6.82595 10.6185 6.5398 10.8295 6.32883C11.0405 6.11785 11.3266 5.99932 11.625 5.99932Z" fill="black"/>
</g>
<defs>
<clipPath id="clip0_342_1631">
<rect width="24" height="24" fill="white"/>
</clipPath>
</defs>
</svg>
