<svg width="24" height="24" viewBox="0 0 24 24" fill="none" xmlns="http://www.w3.org/2000/svg">
<path d="M0.640501 2.88976L2.463 4.71226C4.15789 2.49338 6.57332 0.934793 9.29347 0.304818C12.0136 -0.325157 14.8683 0.0128941 17.3661 1.26078C19.8638 2.50866 21.8484 4.58829 22.9782 7.14167C24.108 9.69504 24.3122 12.5624 23.5557 15.2501C22.7993 17.9379 21.1295 20.2778 18.8338 21.8671C16.5381 23.4564 13.7602 24.1957 10.9782 23.9576C8.19624 23.7195 5.58429 22.5191 3.59201 20.5628C1.59974 18.6065 0.351787 16.0169 0.0630006 13.2398C0.0323681 12.9428 0.120964 12.6458 0.309297 12.4141C0.49763 12.1825 0.770274 12.0351 1.06725 12.0045C1.36423 11.9739 1.66121 12.0625 1.89286 12.2508C2.12452 12.4391 2.27187 12.7118 2.3025 13.0088C2.53899 15.2774 3.56335 17.3912 5.19735 18.9826C6.83135 20.574 8.97157 21.5422 11.2456 21.7186C13.5197 21.8951 15.7836 21.2687 17.6436 19.9485C19.5035 18.6282 20.8417 16.6976 21.4254 14.4927C22.009 12.2877 21.8011 9.94794 20.8379 7.88041C19.8747 5.81289 18.2171 4.1485 16.1535 3.17682C14.0899 2.20515 11.751 1.98771 9.54369 2.56232C7.33636 3.13693 5.40035 4.46723 4.0725 6.32176L6.1095 8.35876C6.16208 8.41121 6.1979 8.47809 6.21243 8.55092C6.22695 8.62375 6.21953 8.69925 6.19109 8.76786C6.16265 8.83646 6.11448 8.89508 6.05269 8.93628C5.9909 8.97747 5.91827 8.99939 5.844 8.99926H0.375001C0.275544 8.99926 0.180162 8.95975 0.109836 8.88943C0.0395094 8.8191 6.00488e-07 8.72372 6.00488e-07 8.62426V3.15526C-0.000132273 3.08099 0.021789 3.00836 0.0629854 2.94657C0.104182 2.88478 0.162798 2.83661 0.231403 2.80817C0.300008 2.77973 0.375512 2.77231 0.448344 2.78683C0.521175 2.80136 0.588053 2.83718 0.640501 2.88976ZM11.625 5.99926C11.9234 5.99926 12.2095 6.11779 12.4205 6.32876C12.6315 6.53974 12.75 6.82589 12.75 7.12426V11.6123L15.792 12.8303C16.0601 12.9471 16.2721 13.1638 16.3832 13.4343C16.4942 13.7048 16.4956 14.008 16.3869 14.2795C16.2783 14.551 16.0682 14.7695 15.8012 14.8888C15.5341 15.008 15.2312 15.0186 14.9565 14.9183L11.2065 13.4183C10.998 13.3347 10.8192 13.1906 10.6933 13.0045C10.5674 12.8184 10.5001 12.5989 10.5 12.3743V7.12426C10.5 6.82589 10.6185 6.53974 10.8295 6.32876C11.0405 6.11779 11.3266 5.99926 11.625 5.99926Z" fill="white"/>
</svg>
